<svg width="256" height="256" viewBox="0 0 256 256" fill="none" xmlns="http://www.w3.org/2000/svg">
<g clip-path="url(#clip0_77_8)">
<rect width="256" height="256" rx="46" fill="#151C28"/>
<g clip-path="url(#clip1_77_8)">
<path d="M116 185C114.34 185 113 186.34 113 188V206C113 207.66 114.34 209 116 209C117.66 209 119 207.66 119 206V188C119 186.34 117.66 185 116 185Z" fill="white"/>
<path d="M140 185C138.34 185 137 186.34 137 188V206C137 207.66 138.34 209 140 209C141.66 209 143 207.66 143 206V188C143 186.34 141.66 185 140 185Z" fill="white"/>
<path d="M194 86V80C194 60.2 177.564 44 157.484 44H128H98.516C78.436 44 62 60.2 62 80V86H128H194Z" fill="white"/>
<path d="M200 134V104C200 104 200 98 194 98V92H128H62V98C56 98 56 104 56 104V134C48.388 137.368 44 143.652 44 152C44 163.152 61.876 178.776 61.876 182C61.876 200 74.316 212 92.464 212C99.1 212 105.188 209.9 110.084 206.416C110.072 206.268 110 206.148 110 206V188C110 184.688 112.696 182 116 182C118.676 182 120.868 183.792 121.636 186.224H122V185C122 181.688 124.696 179 128 179C131.304 179 134 181.688 134 185V186.224H134.364C135.132 183.792 137.324 182 140 182C143.304 182 146 184.688 146 188V206C146 206.148 145.928 206.268 145.916 206.416C150.812 209.9 156.9 212 163.536 212C181.684 212 194.124 200 194.124 182C194.124 178.776 212 163.152 212 152C212 143.652 207.612 137.368 200 134ZM89 200C84.032 200 80 195.968 80 191C80 186.032 84.032 182 89 182C93.968 182 98 186.032 98 191C98 195.968 93.968 200 89 200ZM98 158H87.712C86.716 158 86 157.46 86 156.8C86 156.136 86.716 155.452 87.712 155.252L98 152V158ZM116 150.436C112.496 151.888 109.108 153.688 105.78 155.328C105.244 155.592 104.608 155.792 104 156.004V147.688C108.26 144.024 112.064 141.512 116 139.864V150.436ZM86 128C74 128 74 104 74 104H122C122 104 98 128 86 128ZM134 148.436C132.044 147.968 130.052 147.684 128 147.684C125.948 147.684 123.956 147.964 122 148.436V138.04C123.9 137.664 125.88 137.432 128 137.34C130.12 137.428 132.1 137.664 134 138.04V148.436ZM152 156.004C151.392 155.792 150.756 155.592 150.22 155.328C146.892 153.692 143.504 151.892 140 150.436V139.86C143.936 141.508 147.74 144.02 152 147.684V156.004ZM167 200C162.032 200 158 195.968 158 191C158 186.032 162.032 182 167 182C171.968 182 176 186.032 176 191C176 195.968 171.968 200 167 200ZM158 158V152L168.288 155.252C169.284 155.452 170 156.136 170 156.8C170 157.46 169.284 158 168.288 158H158ZM170 128C158 128 134 104 134 104H182C182 104 182 128 170 128Z" fill="white"/>
<path d="M128 182C126.34 182 125 183.34 125 185V209C125 210.66 126.34 212 128 212C129.66 212 131 210.66 131 209V185C131 183.34 129.66 182 128 182Z" fill="white"/>
</g>
</g>
<defs>
<clipPath id="clip0_77_8">
<rect width="256" height="256" fill="white"/>
</clipPath>
<clipPath id="clip1_77_8">
<rect width="168" height="168" fill="white" transform="translate(44 44)"/>
</clipPath>
</defs>
</svg>
